<?xml version="1.0" encoding="utf-8"?>
<!-- Generator: Adobe Illustrator 21.0.0, SVG Export Plug-In . SVG Version: 6.00 Build 0)  -->
<svg version="1.1" id="Layer_1" xmlns="http://www.w3.org/2000/svg" xmlns:xlink="http://www.w3.org/1999/xlink" x="0px" y="0px"
	 viewBox="0 0 506.2 376.4" style="enable-background:new 0 0 506.2 376.4;" xml:space="preserve">
<style type="text/css">
	.st0{fill:#BFBFBF;}
	.st1{fill:#DA3F7B;}
	.st2{fill:#E6E7E8;}
	.st3{fill:#F3FCFF;}
	.st4{fill:#D0D2D3;}
	.st5{fill:#414042;}
	.st6{fill:#DDDDDD;}
	.st7{fill:#00A79D;}
	.st8{fill:#F0F2F2;}
	.st9{fill:#FBB040;}
	.st10{fill:#FFD6A1;}
	.st11{fill:#EFAC2A;}
	.st12{fill:#FFE6CA;}
	.st13{fill:#96D4EA;}
	.st14{fill:#FFFFFF;}
</style>
<g>
	<g>
		<path class="st0" d="M482.2,165.4H301.4c-7.3,0-13.3-5.9-13.3-13.3v0c0-7.3,5.9-13.3,13.3-13.3h180.8c7.3,0,13.3,5.9,13.3,13.3v0
			C495.4,159.5,489.5,165.4,482.2,165.4z"/>
		<path class="st0" d="M486.5,288.1h-18.9c-4.5,0-8.1-3.6-8.1-8.1s3.6-8.1,8.1-8.1h-1.1c7.5,0,13.6-6.1,13.6-13.6l0,0
			c0-7.5-6.1-13.6-13.6-13.6h-29.5c-4.6,0-8.4-3.8-8.4-8.4c0-4.6,3.8-8.4,8.4-8.4h6.1c4.6,0,8.3-3.7,8.3-8.3v0
			c0-4.6-3.7-8.3-8.3-8.3h-73.4c-4.3,0-7.8-3.5-7.8-7.8l0,0c0-4.3,3.5-7.8,7.8-7.8h25.5c2.8,0,5.1-2.3,5.1-5.1
			c0-2.8-2.3-5.1-5.1-5.1H231.2c-2.8,0-5.1,2.3-5.1,5.1c0,2.8,2.3,5.1,5.1,5.1h8c-4.3,0-7.8,3.5-7.8,7.8l0,0c0,4.3,3.5,7.8,7.8,7.8
			h12.3c-4.6,0-8.3,3.7-8.3,8.3v0c0,4.6,3.7,8.3,8.3,8.3h-21.7c-4.6,0-8.4,3.8-8.4,8.4c0,4.6,3.8,8.4,8.4,8.4h-6.1
			c-7.5,0-13.6,6.1-13.6,13.6l0,0c0,7.5,6.1,13.6,13.6,13.6h76.6c-4.5,0-8.1,3.6-8.1,8.1s3.6,8.1,8.1,8.1h-35c-5,0-9,4-9,9
			c0,5,4,9,9,9h-43.9c-8.8,0-16,7.2-16,16v0c0,8.8,7.2,16,16,16h35.4v20.1h113.4h58.7h45.7c5.6,0,10.1-4.5,10.1-10.1v0
			c0-5.6-4.5-10.1-10.1-10.1h-30c-8.8,0-16-7.2-16-16v0c0-8.8,7.2-16,16-16h42c5,0,9-4,9-9C495.4,292.1,491.4,288.1,486.5,288.1z"/>
		<path class="st0" d="M284.8,205.7H136.1c5.6,0,10.1-4.5,10.1-10.1l0,0c0-5.6-4.5-10.1-10.1-10.1H31.7c-5.6,0-10.1,4.5-10.1,10.1
			l0,0c0,5.6,4.5,10.1,10.1,10.1h30c8.8,0,16,7.2,16,16l0,0c0,8.8-7.2,16-16,16h-42c-5,0-9,4-9,9c0,5,4,9,9,9h18.9
			c4.5,0,8.1,3.6,8.1,8.1s-3.6,8.1-8.1,8.1h1.1c-7.5,0-13.6,6.1-13.6,13.6v0c0,7.5,6.1,13.6,13.6,13.6h29.5c4.6,0,8.4,3.8,8.4,8.4
			c0,4.6-3.8,8.4-8.4,8.4h-6.1c-4.6,0-8.3,3.7-8.3,8.3v0c0,4.6,3.7,8.3,8.3,8.3h73.4c4.3,0,7.8,3.5,7.8,7.8v0c0,4.3-3.5,7.8-7.8,7.8
			h-25.5c-2.8,0-5.1,2.3-5.1,5.1c0,2.8,2.3,5.1,5.1,5.1H275c2.8,0,5.1-2.3,5.1-5.1c0-2.8-2.3-5.1-5.1-5.1h-8c4.3,0,7.8-3.5,7.8-7.8
			v0c0-4.3-3.5-7.8-7.8-7.8h-12.3c4.6,0,8.3-3.7,8.3-8.3v0c0-4.6-3.7-8.3-8.3-8.3h21.7c4.6,0,8.4-3.8,8.4-8.4c0-4.6-3.8-8.4-8.4-8.4
			h6.1c7.5,0,13.6-6.1,13.6-13.6v0c0-7.5-6.1-13.6-13.6-13.6h-76.6c4.5,0,8.1-3.6,8.1-8.1s-3.6-8.1-8.1-8.1h35c5,0,9-4,9-9
			c0-5-4-9-9-9h43.9c8.8,0,16-7.2,16-16l0,0C300.8,212.9,293.6,205.7,284.8,205.7z"/>
		<path class="st1" d="M393.2,136.7H110.1c-2.5,0-4.5,2-4.5,4.5V294h0h14.2h278V141.2C397.8,138.7,395.7,136.7,393.2,136.7z"/>
		<path class="st2" d="M251.7,351.2h-39.3c-1.9,0-3.4,1.5-3.4,3.4v0c0,1.9,1.5,3.4,3.4,3.4h39.3H291c1.9,0,3.4-1.5,3.4-3.4v0
			c0-1.9-1.5-3.4-3.4-3.4H251.7z"/>
		<rect x="119.8" y="150.6" class="st3" width="263.8" height="124.6"/>
		<path class="st2" d="M105.6,294v20.2c0,2.5,2,4.5,4.5,4.5h283.1c2.5,0,4.5-2,4.5-4.5V294H105.6z"/>
		<polygon class="st4" points="219.3,318.7 215.5,351.2 251.7,351.2 287.8,351.2 284,318.7 		"/>
		<path class="st5" d="M397.8,295.5H105.6c-0.9,0-1.6-0.7-1.6-1.6V141.2c0-3.4,2.7-6.1,6.1-6.1h283.1c3.4,0,6.1,2.7,6.1,6.1V294
			C399.3,294.8,398.6,295.5,397.8,295.5z M107.1,292.4h289.1V141.2c0-1.7-1.3-3-3-3H110.1c-1.7,0-3,1.3-3,3V292.4z"/>
		<path class="st5" d="M291,359.6h-78.6c-2.8,0-5-2.2-5-5c0-2.8,2.2-5,5-5H291c2.8,0,5,2.2,5,5C296,357.4,293.7,359.6,291,359.6z
			 M212.4,352.7c-1,0-1.9,0.8-1.9,1.9c0,1,0.8,1.9,1.9,1.9H291c1,0,1.9-0.8,1.9-1.9c0-1-0.8-1.9-1.9-1.9H212.4z"/>
		<path class="st5" d="M383.6,276.8H119.8c-0.9,0-1.6-0.7-1.6-1.6V150.6c0-0.9,0.7-1.6,1.6-1.6h263.8c0.9,0,1.6,0.7,1.6,1.6v124.6
			C385.1,276.1,384.4,276.8,383.6,276.8z M121.3,273.7H382V152.1H121.3V273.7z"/>
		<path class="st5" d="M393.2,320.2H110.1c-3.4,0-6.1-2.7-6.1-6.1V294c0-0.9,0.7-1.6,1.6-1.6h292.2c0.9,0,1.6,0.7,1.6,1.6v20.2
			C399.3,317.5,396.6,320.2,393.2,320.2z M107.1,295.5v18.6c0,1.7,1.3,3,3,3h283.1c1.7,0,3-1.3,3-3v-18.6H107.1z"/>
		<path class="st5" d="M287.8,352.7h-72.3c-0.4,0-0.9-0.2-1.2-0.5c-0.3-0.3-0.4-0.8-0.4-1.2l3.8-32.5c0.1-0.8,0.8-1.4,1.5-1.4H284
			c0.8,0,1.4,0.6,1.5,1.4l3.8,32.5c0.1,0.4-0.1,0.9-0.4,1.2C288.7,352.6,288.3,352.7,287.8,352.7z M217.3,349.6h68.8l-3.5-29.4
			h-61.9L217.3,349.6z"/>
		<g>
			<rect x="134.1" y="162.3" class="st6" width="79.4" height="101.1"/>
			<path class="st5" d="M213.6,265h-79.4c-0.9,0-1.6-0.7-1.6-1.6V162.3c0-0.9,0.7-1.6,1.6-1.6h79.4c0.9,0,1.6,0.7,1.6,1.6v101.1
				C215.1,264.3,214.4,265,213.6,265z M135.7,261.9H212v-98h-76.3V261.9z"/>
			<g>
				<path class="st7" d="M199.5,257.3h-51.2v-8.4c0-14.1,11.5-25.6,25.6-25.6h0c14.1,0,25.6,11.5,25.6,25.6V257.3z"/>
				<path class="st5" d="M199.5,258.4h-51.2c-0.6,0-1.1-0.5-1.1-1.1v-8.4c0-14.7,12-26.7,26.7-26.7s26.7,12,26.7,26.7v8.4
					C200.5,257.9,200,258.4,199.5,258.4z M149.3,256.2h49.1v-7.4c0-13.5-11-24.5-24.5-24.5c-13.5,0-24.5,11-24.5,24.5V256.2z"/>
				<path class="st8" d="M173.9,229.3L173.9,229.3c-2.7,0-4.9-2.2-4.9-4.9v-4.9h9.8v4.9C178.7,227.1,176.5,229.3,173.9,229.3z"/>
				<path class="st5" d="M173.9,230.3c-3.3,0-5.9-2.7-5.9-5.9v-4.9c0-0.6,0.5-1.1,1.1-1.1h9.8c0.6,0,1.1,0.5,1.1,1.1v4.9
					C179.8,227.7,177.1,230.3,173.9,230.3z M170,220.6v3.8c0,2.1,1.7,3.8,3.8,3.8c2.1,0,3.8-1.7,3.8-3.8v-3.8H170z"/>
				<path class="st8" d="M173.9,221.5L173.9,221.5c-9.9,0-17.9-8-17.9-17.9v-20.5h35.7v20.5C191.7,213.5,183.7,221.5,173.9,221.5z"
					/>
				<path class="st8" d="M156,190.8L156,190.8c-2.1,0-3.8,1.7-3.8,3.8v1.2c0,2.1,1.7,3.8,3.8,3.8l0,0V190.8z"/>
				<path class="st8" d="M191.7,190.8L191.7,190.8c2.1,0,3.8,1.7,3.8,3.8v1.2c0,2.1-1.7,3.8-3.8,3.8l0,0V190.8z"/>
				<path class="st5" d="M173.9,222.6c-10.4,0-18.9-8.5-18.9-18.9v-20.5c0-0.6,0.5-1.1,1.1-1.1h35.7c0.6,0,1.1,0.5,1.1,1.1v20.5
					C192.8,214.1,184.3,222.6,173.9,222.6z M157.1,184.3v19.4c0,9.3,7.5,16.8,16.8,16.8c9.3,0,16.8-7.5,16.8-16.8v-19.4H157.1z"/>
				<path class="st5" d="M156,200.7c-2.7,0-4.9-2.2-4.9-4.9v-1.2c0-2.7,2.2-4.9,4.9-4.9c0.6,0,1.1,0.5,1.1,1.1v8.8
					C157.1,200.2,156.6,200.7,156,200.7z M154.9,192.1c-1,0.4-1.7,1.4-1.7,2.6v1.2c0,1.2,0.7,2.2,1.7,2.6V192.1z"/>
				<path class="st5" d="M191.7,200.7c-0.6,0-1.1-0.5-1.1-1.1v-8.8c0-0.6,0.5-1.1,1.1-1.1c2.7,0,4.9,2.2,4.9,4.9v1.2
					C196.6,198.5,194.4,200.7,191.7,200.7z M192.8,192.1v6.3c1-0.4,1.7-1.4,1.7-2.6v-1.2C194.5,193.5,193.8,192.5,192.8,192.1z"/>
				<path class="st9" d="M166.1,170L166.1,170c-8.3,3.3-13.6,11.6-13.1,20.6l0,0.5c0.1,1.8,1.3,3.4,2.9,4.2c1.4-1.5,2.2-3.5,2.2-5.6
					v-2.1c0-1,1-1.8,1.9-1.5l0,0c8.8,3.7,18.7,3.7,27.5,0h0c1-0.2,1.9,0.5,1.9,1.5v2.1c0,2.1,0.8,4,2.2,5.6h0
					c1.7-0.8,2.8-2.4,2.9-4.2l0-0.5c0.5-9-4.8-17.3-13.1-20.6v0C176.6,168,171.1,168,166.1,170z"/>
				<path class="st5" d="M191.7,196.3c-0.3,0-0.6-0.1-0.8-0.3c-1.6-1.7-2.5-3.9-2.5-6.3v-2.1c0-0.3-0.3-0.5-0.6-0.5
					c-4.5,1.9-9.2,2.8-14,2.8c-4.8,0-9.6-0.9-14-2.8c-0.3,0-0.6,0.2-0.6,0.5v2.1c0,2.3-0.9,4.6-2.5,6.3c-0.3,0.3-0.8,0.4-1.2,0.2
					c-2-0.9-3.4-2.9-3.6-5.1l0-0.5c-0.6-9.4,5-18.1,13.8-21.6c2.6-1,5.3-1.6,8.1-1.6c2.8,0,5.5,0.5,8.1,1.6
					c8.8,3.5,14.3,12.2,13.8,21.6l0,0.5c-0.2,2.2-1.5,4.2-3.6,5.1C192,196.3,191.9,196.3,191.7,196.3z M173.9,169.6
					c-2.5,0-5,0.5-7.3,1.4c-7.9,3.2-12.9,11-12.4,19.6l0,0.5c0.1,1.2,0.7,2.2,1.6,2.9c0.9-1.2,1.4-2.7,1.4-4.2v-2.1
					c0-1.5,1.2-2.6,2.6-2.6c0.2,0,0.4,0,0.6,0.1c0.1,0,0.1,0,0.2,0.1c4.2,1.8,8.7,2.7,13.3,2.7s9.1-0.9,13.3-2.7
					c0.1,0,0.1,0,0.2-0.1c0.2,0,0.4-0.1,0.6-0.1c1.5,0,2.6,1.2,2.6,2.6v2.1c0,1.5,0.5,3,1.4,4.2c0.9-0.7,1.5-1.7,1.6-2.9l0-0.4
					c0.5-8.5-4.5-16.4-12.4-19.6C178.8,170,176.4,169.6,173.9,169.6z"/>
				<path class="st5" d="M157.5,258.4c-0.6,0-1.1-0.5-1.1-1.1v-6.1c0-0.6,0.5-1.1,1.1-1.1c0.6,0,1.1,0.5,1.1,1.1v6.1
					C158.5,257.9,158.1,258.4,157.5,258.4z"/>
				<path class="st5" d="M190.2,258.4c-0.6,0-1.1-0.5-1.1-1.1v-6.1c0-0.6,0.5-1.1,1.1-1.1c0.6,0,1.1,0.5,1.1,1.1v6.1
					C191.3,257.9,190.8,258.4,190.2,258.4z"/>
				<path class="st5" d="M178.7,235c-0.3,0-0.5-0.1-0.7-0.3l-4.1-4l-4.1,4c-0.3,0.3-0.8,0.4-1.2,0.2c-0.4-0.2-0.6-0.6-0.6-1v-9.6
					c0-0.6,0.5-1.1,1.1-1.1c0.6,0,1.1,0.5,1.1,1.1v7.1l3.1-3c0.4-0.4,1.1-0.4,1.5,0l3.1,3v-7.1c0-0.6,0.5-1.1,1.1-1.1
					c0.6,0,1.1,0.5,1.1,1.1v9.6c0,0.4-0.3,0.8-0.6,1C179,235,178.9,235,178.7,235z"/>
			</g>
		</g>
		<rect x="236.4" y="162.8" class="st6" width="125.3" height="17.3"/>
		<rect x="236.4" y="196.3" class="st6" width="58.1" height="6.1"/>
		<rect x="236.4" y="212.3" class="st6" width="58.1" height="6.1"/>
		<rect x="236.4" y="228.3" class="st6" width="58.1" height="6.1"/>
		<rect x="236.4" y="244.3" class="st6" width="58.1" height="6.1"/>
		<g>
			<path class="st9" d="M94.5,340.6L94.5,340.6c-3-1.9-3.9-5.9-1.9-8.9l31.3-48.6l10.8,7l-31.3,48.6
				C101.5,341.6,97.5,342.5,94.5,340.6z"/>
			<path class="st5" d="M98,343.2c-1.5,0-3-0.4-4.3-1.3c-1.8-1.2-3-2.9-3.5-5c-0.5-2.1-0.1-4.2,1.1-6l31.3-48.6
				c0.5-0.7,1.4-0.9,2.1-0.5l10.8,7c0.3,0.2,0.6,0.6,0.7,1c0.1,0.4,0,0.8-0.2,1.2l-31.3,48.6C103.2,341.8,100.7,343.2,98,343.2z
				 M124.4,285.3l-30.5,47.3c-0.7,1.1-0.9,2.4-0.7,3.7c0.3,1.3,1,2.4,2.1,3.1c0.8,0.5,1.7,0.8,2.6,0.8c1.7,0,3.2-0.8,4.1-2.2
				l30.5-47.3L124.4,285.3z"/>
			<path class="st10" d="M167.8,226.9c-16.6-10.7-38.7-5.9-49.4,10.7c-10.7,16.6-5.9,38.7,10.7,49.4c16.6,10.7,38.7,5.9,49.4-10.7
				C189.2,259.7,184.4,237.6,167.8,226.9z M132.7,281.3c-13.5-8.7-17.3-26.6-8.7-40.1c8.7-13.5,26.6-17.3,40.1-8.7
				c13.5,8.7,17.3,26.6,8.7,40.1C164.1,286.1,146.2,290,132.7,281.3z"/>
			<path class="st5" d="M148.4,294.3c-7.2,0-14.1-2.1-20.2-6c-8.4-5.4-14.1-13.7-16.3-23.5c-2.1-9.7-0.3-19.7,5.1-28.1
				c6.9-10.7,18.6-17.1,31.4-17.1c7.2,0,14.1,2.1,20.2,6c17.3,11.1,22.3,34.3,11.1,51.6C172.9,287.9,161.1,294.3,148.4,294.3z
				 M148.4,222.8c-11.7,0-22.5,5.9-28.8,15.7c-4.9,7.7-6.6,16.8-4.7,25.8c1.9,8.9,7.2,16.6,14.9,21.5c5.5,3.6,11.9,5.5,18.5,5.5
				c11.7,0,22.5-5.9,28.8-15.7c10.2-15.9,5.6-37.1-10.2-47.3C161.4,224.6,155,222.8,148.4,222.8z"/>
			<path class="st5" d="M164.8,268.8c-0.2,0-0.5-0.1-0.7-0.2c-0.6-0.4-0.8-1.2-0.4-1.8c5.4-8.4,3-19.6-5.4-25
				c-0.6-0.4-0.8-1.2-0.4-1.8c0.4-0.6,1.2-0.8,1.8-0.4c9.6,6.2,12.4,19.1,6.2,28.7C165.6,268.6,165.2,268.8,164.8,268.8z"/>
			<path class="st5" d="M106.8,320c-0.2,0-0.5-0.1-0.7-0.2c-0.6-0.4-0.8-1.2-0.4-1.8l3.8-5.9c0.4-0.6,1.2-0.8,1.8-0.4
				c0.6,0.4,0.8,1.2,0.4,1.8l-3.8,5.9C107.7,319.8,107.3,320,106.8,320z"/>
			<path class="st5" d="M113.9,309.1c-0.2,0-0.5-0.1-0.7-0.2c-0.6-0.4-0.8-1.2-0.4-1.8l14.1-21.9c0.4-0.6,1.2-0.8,1.8-0.4
				c0.6,0.4,0.8,1.2,0.4,1.8L115,308.5C114.7,308.9,114.3,309.1,113.9,309.1z"/>
		</g>
		<g>
			<rect x="291.9" y="18.3" class="st9" width="128.4" height="168.8"/>

				<rect x="279.6" y="46.4" transform="matrix(-1.836970e-16 1 -1 -1.836970e-16 458.7727 -253.3886)" class="st3" width="152.9" height="112.5"/>
			<rect x="311" y="35" class="st10" width="90.2" height="19"/>
			<path class="st5" d="M420.3,188.7H291.9c-0.9,0-1.6-0.7-1.6-1.6V18.3c0-0.9,0.7-1.6,1.6-1.6h128.4c0.9,0,1.6,0.7,1.6,1.6v168.8
				C421.9,188,421.2,188.7,420.3,188.7z M293.4,185.6h125.3V19.8H293.4V185.6z"/>
			<rect x="311" y="68.5" class="st6" width="32" height="2.7"/>
			<rect x="311" y="77.6" class="st6" width="32" height="2.7"/>
			<rect x="311" y="86.8" class="st6" width="32" height="2.7"/>
			<rect x="311" y="96" class="st6" width="32" height="2.7"/>
			<rect x="311" y="105.2" class="st6" width="32" height="2.7"/>
			<rect x="311" y="114.3" class="st6" width="32" height="2.7"/>
			<rect x="311" y="123.5" class="st6" width="32" height="2.7"/>
			<rect x="311" y="132.7" class="st6" width="32" height="2.7"/>
			<rect x="311" y="141.9" class="st6" width="32" height="2.7"/>
			<rect x="311" y="151" class="st6" width="32" height="2.7"/>
			<rect x="311" y="160.2" class="st6" width="32" height="2.7"/>
			<rect x="369.2" y="68.5" class="st6" width="32" height="2.7"/>
			<rect x="369.2" y="77.6" class="st6" width="32" height="2.7"/>
			<rect x="369.2" y="86.8" class="st6" width="32" height="2.7"/>
			<rect x="369.2" y="96" class="st6" width="32" height="2.7"/>
			<rect x="369.2" y="105.2" class="st6" width="32" height="2.7"/>
			<rect x="369.2" y="114.3" class="st6" width="32" height="2.7"/>
			<rect x="369.2" y="123.5" class="st6" width="32" height="2.7"/>
			<rect x="369.2" y="132.7" class="st6" width="32" height="2.7"/>
			<rect x="369.2" y="141.9" class="st6" width="32" height="2.7"/>
			<rect x="369.2" y="151" class="st6" width="32" height="2.7"/>
			<rect x="369.2" y="160.2" class="st6" width="32" height="2.7"/>
		</g>
		<path class="st5" d="M327.7,242.5c-7.5,0-13.5-6.1-13.5-13.5c0-7.5,6.1-13.5,13.5-13.5s13.5,6.1,13.5,13.5
			C341.3,236.4,335.2,242.5,327.7,242.5z M327.7,218.5c-5.8,0-10.4,4.7-10.4,10.4c0,5.8,4.7,10.4,10.4,10.4s10.4-4.7,10.4-10.4
			C338.2,223.2,333.5,218.5,327.7,218.5z"/>
		<circle class="st1" cx="327.7" cy="228.9" r="5"/>
		<g>
			<polygon class="st11" points="327.7,228.9 334.7,262.5 342.9,254.4 355.1,266.6 360.3,261.5 365.4,256.3 353.2,244 361.3,235.9
							"/>
			<path class="st5" d="M355.1,268.2c-0.4,0-0.8-0.2-1.1-0.5l-11.1-11.1l-7,7c-0.4,0.4-1,0.6-1.5,0.4c-0.5-0.2-1-0.6-1.1-1.2
				l-7-33.6c-0.1-0.5,0.1-1,0.4-1.4c0.4-0.4,0.9-0.5,1.4-0.4l33.6,7c0.6,0.1,1,0.5,1.2,1.1c0.2,0.5,0,1.1-0.4,1.5l-7,7l11.1,11.1
				c0.3,0.3,0.5,0.7,0.5,1.1c0,0.4-0.2,0.8-0.5,1.1l-10.3,10.3C355.9,268,355.5,268.2,355.1,268.2z M342.9,252.8
				c0.4,0,0.8,0.2,1.1,0.5l11.1,11.1l8.1-8.1l-11.1-11.1c-0.6-0.6-0.6-1.6,0-2.2l6.1-6.1l-28.5-5.9l5.9,28.5l6.1-6.1
				C342.1,253,342.5,252.8,342.9,252.8z"/>
		</g>
		<g>
			<polygon class="st3" points="203.3,26.8 177.7,52.4 177.7,165.2 278.8,165.2 278.8,26.8 			"/>
			<path class="st5" d="M278.8,166.7H177.7c-0.9,0-1.6-0.7-1.6-1.6V52.4c0-0.4,0.2-0.8,0.5-1.1l25.6-25.6c0.3-0.3,0.7-0.5,1.1-0.5
				h75.5c0.9,0,1.6,0.7,1.6,1.6v138.3C280.3,166,279.6,166.7,278.8,166.7z M179.2,163.6h98V28.4h-73.3l-24.7,24.7V163.6z"/>
			<polygon class="st0" points="177.7,52.4 203.3,52.4 203.3,26.8 			"/>
			<path class="st5" d="M203.3,54h-25.6c-0.6,0-1.2-0.4-1.4-1c-0.2-0.6-0.1-1.2,0.3-1.7l25.6-25.6c0.4-0.4,1.1-0.6,1.7-0.3
				c0.6,0.2,1,0.8,1,1.4v25.6C204.8,53.3,204.2,54,203.3,54z M181.4,50.9h20.3V30.6L181.4,50.9z"/>
			<rect x="212.8" y="37" class="st6" width="56.2" height="9.7"/>
			<rect x="245.2" y="55.9" class="st12" width="23.8" height="28.9"/>
			<rect x="190.5" y="60.3" class="st6" width="47.7" height="3.6"/>
			<rect x="190.5" y="68.5" class="st6" width="47.7" height="3.6"/>
			<rect x="190.5" y="76.8" class="st6" width="47.7" height="3.6"/>
			<rect x="190.5" y="85" class="st6" width="47.7" height="3.6"/>
			<rect x="190.5" y="93.3" class="st6" width="78.5" height="3.6"/>
			<rect x="190.5" y="101.5" class="st6" width="78.5" height="3.6"/>
			<rect x="190.5" y="109.8" class="st6" width="78.5" height="3.6"/>
			<rect x="190.5" y="118" class="st6" width="42.7" height="3.6"/>
			<rect x="190.5" y="126.3" class="st6" width="42.7" height="3.6"/>
			<rect x="190.5" y="134.5" class="st6" width="42.7" height="3.6"/>
			<path class="st13" d="M254,131.2l-3.5-12.5c-5.5,1.5-9.5,6.6-9.5,12.5c0,7.2,5.8,13,13,13c7.2,0,13-5.8,13-13c0-0.5,0-1-0.1-1.5
				L254,131.2z"/>
			<rect x="190.5" y="142.8" class="st6" width="42.7" height="3.6"/>
			<path class="st6" d="M251,120.3l3,10.8l11.2-1.3c-0.6-5.6-5.4-10-11.2-10C252.9,119.9,251.9,120.1,251,120.3z"/>
		</g>
		<g>
			<path class="st9" d="M148.1,137.4l3.7-2.2l-5.6-9.4l-3.7,2.2c0,0,0,0,0,0c0,0-0.1-0.1-0.1-0.1c-3-3-6.6-4.9-10.4-5.9h0v-4.3h-11
				v4.3l0,0c-3.8,1-7.4,2.9-10.4,5.9c0,0-0.1,0.1-0.1,0.1c0,0,0,0,0,0l-3.7-2.2l-5.6,9.4l3.7,2.2c-1.2,4.1-1.2,8.6,0,12.7l-3.7,2.2
				l5.6,9.4l3.7-2.2c0,0,0,0,0,0c0,0,0.1,0.1,0.1,0.1c3,3,6.6,4.9,10.4,5.9v4.3h11v-4.3c3.8-1,7.4-2.9,10.4-5.9c0,0,0.1-0.1,0.1-0.1
				c0,0,0,0,0,0l3.7,2.2l5.6-9.4l-3.7-2.2C149.3,146,149.3,141.6,148.1,137.4z M135.4,152.6c-4.9,4.9-12.8,4.9-17.7,0
				c-4.9-4.9-4.9-12.8,0-17.7c4.9-4.9,12.8-4.9,17.7,0C140.2,139.8,140.2,147.7,135.4,152.6z"/>
			<path class="st1" d="M165.7,102.3l2.5-1.1l-2.7-6.3l-2.5,1.1c0,0,0,0,0,0c0,0,0,0,0-0.1c-1.6-2.1-3.7-3.6-6-4.5l0,0l0.3-2.7
				l-6.9-0.9l-0.3,2.7h0c-2.5,0.3-4.9,1.2-7,2.9c0,0,0,0-0.1,0c0,0,0,0,0,0l-2.1-1.6l-4.2,5.5l2.1,1.6c-1.1,2.5-1.4,5.3-1,8
				l-2.5,1.1l2.7,6.3l2.5-1.1c0,0,0,0,0,0c0,0,0,0,0,0.1c1.6,2.1,3.7,3.6,6,4.5l-0.3,2.7l6.9,0.9l0.3-2.7c2.5-0.3,4.9-1.2,7-2.9
				c0,0,0,0,0.1,0c0,0,0,0,0,0l2.1,1.6l4.2-5.5l-2.1-1.6C165.8,107.8,166.1,105,165.7,102.3z M156.6,110.8c-3.4,2.7-8.4,2-11.1-1.4
				c-2.7-3.4-2-8.4,1.4-11.1c3.4-2.7,8.4-2,11.1,1.4C160.6,103.2,160,108.2,156.6,110.8z"/>
			<path class="st5" d="M133.5,117.7v3.1c3.4,1,6.5,2.8,9.2,5.2l2.7-1.6c0.4-0.2,0.8-0.3,1.2-0.2c0.4,0.1,0.7,0.4,0.9,0.7l5.6,9.4
				c0.2,0.4,0.3,0.8,0.2,1.2c-0.1,0.4-0.4,0.7-0.7,0.9l-2.6,1.6c0.9,3.7,0.9,7.5,0,11.3l2.6,1.6c0.4,0.2,0.6,0.6,0.7,0.9
				c0.1,0.4,0,0.8-0.2,1.2l-5.6,9.4c-0.2,0.4-0.6,0.6-0.9,0.7c-0.4,0.1-0.8,0-1.2-0.2l-2.7-1.6c-2.6,2.4-5.8,4.2-9.2,5.2v3.1
				c0,0.9-0.7,1.6-1.6,1.6h-11c-0.9,0-1.6-0.7-1.6-1.6v-3.1c-3.4-1-6.5-2.8-9.2-5.2l-2.7,1.6c-0.4,0.2-0.8,0.3-1.2,0.2
				c-0.4-0.1-0.7-0.4-0.9-0.7l-5.6-9.4c-0.2-0.4-0.3-0.8-0.2-1.2c0.1-0.4,0.4-0.7,0.7-0.9l2.6-1.6c-0.9-3.7-0.9-7.5,0-11.3l-2.6-1.6
				c-0.4-0.2-0.6-0.6-0.7-0.9c-0.1-0.4,0-0.8,0.2-1.2l5.6-9.4c0.2-0.4,0.6-0.6,0.9-0.7c0.4-0.1,0.8,0,1.2,0.2l2.7,1.6
				c2.6-2.4,5.8-4.2,9.2-5.2v-3.1c0-0.9,0.7-1.6,1.6-1.6h11C132.8,116.2,133.5,116.9,133.5,117.7z M122.6,122c0,0.7-0.5,1.3-1.2,1.5
				c-3.7,0.9-7,2.8-9.7,5.5l-0.1,0.1c-0.5,0.5-1.3,0.6-1.9,0.2l-2.3-1.4l-4,6.8l2.3,1.4c0.6,0.4,0.9,1.1,0.7,1.8
				c-1.1,3.9-1.1,8,0,11.8c0.2,0.7-0.1,1.4-0.7,1.8l-2.3,1.4l4,6.8l2.3-1.4c0.6-0.4,1.4-0.3,1.9,0.2c0,0,0,0,0,0l0,0c0,0,0,0,0,0
				l0,0c2.7,2.7,6,4.6,9.7,5.5c0.7,0.2,1.2,0.8,1.2,1.5v2.7h7.9v-2.7c0-0.7,0.5-1.3,1.2-1.5c3.7-0.9,7-2.8,9.7-5.5l0,0c0,0,0,0,0,0
				l0,0l0,0c0.5-0.5,1.3-0.6,1.9-0.2l2.3,1.4l4-6.8l-2.3-1.4c-0.6-0.4-0.9-1.1-0.7-1.8c1.1-3.9,1.1-8,0-11.8
				c-0.2-0.7,0.1-1.4,0.7-1.8l2.3-1.4l-4-6.8l-2.3,1.4c-0.6,0.4-1.4,0.3-1.9-0.2l-0.1-0.1c-2.7-2.7-6-4.6-9.7-5.5
				c-0.7-0.2-1.2-0.8-1.2-1.5v-2.7h-7.9V122z M136.4,133.8c5.5,5.5,5.5,14.4,0,19.9c-2.7,2.7-6.2,4.1-9.9,4.1
				c-3.8,0-7.3-1.5-9.9-4.1c-5.5-5.5-5.5-14.4,0-19.9c2.7-2.7,6.2-4.1,9.9-4.1C130.3,129.7,133.8,131.2,136.4,133.8z M134.3,151.5
				c4.3-4.3,4.3-11.2,0-15.5c-2.1-2.1-4.8-3.2-7.8-3.2s-5.7,1.1-7.8,3.2c-4.3,4.3-4.3,11.2,0,15.5c2.1,2.1,4.8,3.2,7.8,3.2
				S132.2,153.6,134.3,151.5z"/>
			<path class="st5" d="M150.5,86.4l6.9,0.9c0.4,0.1,0.8,0.3,1,0.6c0.3,0.3,0.4,0.7,0.3,1.1l-0.2,1.5c1.8,0.9,3.5,2.1,4.8,3.6
				l1.4-0.6c0.4-0.2,0.8-0.2,1.2,0c0.4,0.2,0.7,0.4,0.9,0.8l2.7,6.3c0.3,0.8,0,1.7-0.8,2l-1.4,0.6c0.2,2.2-0.1,4.4-0.8,6.5l1.2,0.9
				c0.7,0.5,0.8,1.5,0.3,2.2l-4.2,5.5c-0.3,0.3-0.6,0.5-1,0.6c-0.4,0.1-0.8-0.1-1.1-0.3l-1.2-0.9c-1.7,1.1-3.6,1.9-5.6,2.3l-0.2,1.5
				c-0.1,0.9-0.9,1.5-1.7,1.3l-6.9-0.9c-0.4-0.1-0.8-0.3-1-0.6c-0.3-0.3-0.4-0.7-0.3-1.1l0.2-1.5c-1.8-0.9-3.5-2.1-4.8-3.6l-1.4,0.6
				c-0.4,0.2-0.8,0.2-1.2,0c-0.4-0.2-0.7-0.4-0.9-0.8l-2.7-6.3c-0.2-0.4-0.2-0.8,0-1.2c0.2-0.4,0.4-0.7,0.8-0.9l1.4-0.6
				c-0.2-2.2,0.1-4.4,0.8-6.5l-1.2-0.9c-0.7-0.5-0.8-1.5-0.3-2.2l4.2-5.5c0.5-0.7,1.5-0.8,2.2-0.3l1.2,0.9c1.7-1.1,3.6-1.9,5.6-2.3
				l0.2-1.5c0.1-0.4,0.3-0.8,0.6-1c0.3-0.2,0.6-0.3,1-0.3C150.4,86.4,150.5,86.4,150.5,86.4z M142,94.7l-0.9-0.7l-2.3,3l0.9,0.7
				c0.6,0.4,0.8,1.2,0.5,1.8c-1,2.2-1.3,4.7-0.9,7.1c0.1,0.7-0.3,1.4-0.9,1.7l-1,0.4l1.5,3.5l1-0.4c0.6-0.3,1.4-0.1,1.9,0.4
				c0,0,0,0,0,0v0c0,0,0,0,0,0.1c1.4,1.8,3.3,3.2,5.4,4c0.7,0.3,1.1,0.9,1,1.6l-0.1,1.1l3.8,0.5l0.1-1.1c0.1-0.7,0.6-1.3,1.4-1.3
				c2.3-0.3,4.4-1.2,6.2-2.5c0,0,0.1,0,0.1-0.1c0.6-0.4,1.3-0.4,1.9,0l0.9,0.7l2.3-3l-0.9-0.7c-0.6-0.4-0.8-1.2-0.5-1.8
				c1-2.2,1.3-4.7,0.9-7.1c-0.1-0.7,0.3-1.4,0.9-1.7l1-0.4l-1.5-3.5l-1,0.4c-0.6,0.3-1.4,0.1-1.8-0.5l0-0.1c-1.4-1.8-3.3-3.2-5.4-4
				c-0.7-0.3-1.1-0.9-1-1.6l0.1-1.1l-3.8-0.5l-0.1,1.1c-0.1,0.7-0.6,1.3-1.4,1.3c-2.3,0.3-4.4,1.2-6.2,2.5c0,0,0,0-0.1,0
				c-0.3,0.2-0.6,0.3-1,0.3C142.6,95,142.3,94.9,142,94.7z M159.2,98.8c1.5,2,2.2,4.5,1.9,7c-0.3,2.5-1.6,4.7-3.6,6.3
				c-1.7,1.3-3.7,2-5.8,2c-2.9,0-5.7-1.3-7.5-3.6c-3.2-4.1-2.4-10,1.7-13.2c1.7-1.3,3.7-2,5.8-2C154.6,95.2,157.4,96.5,159.2,98.8z
				 M155.6,109.6c1.3-1,2.2-2.5,2.4-4.2c0.2-1.7-0.2-3.3-1.3-4.7c-1.2-1.6-3-2.4-5-2.4c-1.4,0-2.8,0.5-3.9,1.3
				c-2.8,2.1-3.3,6.1-1.1,8.9c1.2,1.6,3,2.4,5,2.4C153.1,110.9,154.5,110.5,155.6,109.6z"/>
		</g>
		<g>
			<path class="st3" d="M161.6,316.9c0.2,0,0.3,0,0.5,0c2.3-10.2,11.4-17.9,22.3-17.9s20,7.7,22.3,17.9c0.2,0,0.3,0,0.5,0
				c7.8,0,14.1,6.3,14.1,14.1c0,7.8-6.3,14.1-14.1,14.1h-45.6c-7.8,0-14.1-6.3-14.1-14.1C147.5,323.2,153.8,316.9,161.6,316.9z"/>
			<path class="st5" d="M213.7,332.3c0.7,0,1.3-0.6,1.3-1.3c0-4.3-3.5-7.9-7.9-7.9c0,0,0,0,0,0l-5.4,0.2l-1.1-5.1
				c-1.7-7.5-8.5-13-16.2-13c-0.7,0-1.3,0.6-1.3,1.3c0,0.7,0.6,1.3,1.3,1.3c6.5,0,12.2,4.6,13.6,10.9l1.4,6.2c0.1,0.6,0.7,1.1,1.3,1
				l6.5-0.2c2.9,0,5.2,2.3,5.2,5.2C212.4,331.7,213,332.3,213.7,332.3z"/>
			<path class="st5" d="M146.1,331c0-8.3,6.6-15.2,14.9-15.5c1.3-4.9,4.2-9.3,8.1-12.5c4.3-3.5,9.7-5.4,15.2-5.4
				c5.5,0,10.9,1.9,15.2,5.4c3.9,3.2,6.8,7.6,8.1,12.5c8.3,0.3,14.9,7.1,14.9,15.5c0,8.5-6.9,15.5-15.5,15.5h-45.6
				C153.1,346.5,146.1,339.5,146.1,331z M206.8,318.2L206.8,318.2c-0.7,0-1.3-0.4-1.4-1c-2.2-9.8-11-16.9-21-16.9
				c-10,0-18.8,7.1-21,16.9c-0.1,0.6-0.7,1.1-1.3,1l-0.1,0c-0.1,0-0.2,0-0.3,0c-7.1,0-12.8,5.7-12.8,12.8c0,7.1,5.7,12.8,12.8,12.8
				h45.6c7.1,0,12.8-5.7,12.8-12.8c0-7.1-5.7-12.8-12.8-12.8C207.1,318.2,207,318.2,206.8,318.2z"/>
		</g>
		<g>
			<path class="st3" d="M244,335.2c-0.1,0-0.3,0-0.4,0c-1.9-8.4-9.4-14.8-18.4-14.8s-16.5,6.3-18.4,14.8c-0.1,0-0.3,0-0.4,0
				c-6.4,0-11.7,5.2-11.7,11.7c0,6.4,5.2,11.7,11.7,11.7H244c6.4,0,11.7-5.2,11.7-11.7C255.6,340.4,250.4,335.2,244,335.2z"/>
			<path class="st5" d="M201,348c-0.6,0-1.1-0.5-1.1-1.1c0-3.6,2.9-6.5,6.5-6.5c0,0,0,0,0,0l4.5,0.1l0.9-4.2
				c1.4-6.2,7-10.7,13.3-10.7c0.6,0,1.1,0.5,1.1,1.1c0,0.6-0.5,1.1-1.1,1.1c-5.3,0-10,3.8-11.2,9l-1.1,5.1c-0.1,0.5-0.6,0.9-1.1,0.9
				l-5.4-0.2c-2.4,0-4.3,1.9-4.3,4.3C202.1,347.5,201.6,348,201,348z"/>
			<path class="st5" d="M244,359.6h-37.6c-7,0-12.8-5.7-12.8-12.8c0-6.9,5.5-12.5,12.3-12.8c1.1-4,3.4-7.7,6.7-10.3
				c3.5-2.9,8-4.5,12.6-4.5s9,1.6,12.6,4.5c3.3,2.6,5.6,6.3,6.7,10.3c6.8,0.2,12.3,5.9,12.3,12.8C256.7,353.9,251,359.6,244,359.6z
				 M206.4,336.3c-5.8,0-10.6,4.7-10.6,10.6s4.7,10.6,10.6,10.6H244c5.8,0,10.6-4.7,10.6-10.6s-4.7-10.6-10.6-10.6
				c-0.1,0-0.2,0-0.3,0l-0.1,0c-0.5,0-1-0.3-1.1-0.9c-1.8-8.1-9.1-13.9-17.3-13.9c-8.3,0-15.5,5.8-17.3,13.9
				c-0.1,0.5-0.6,0.9-1.1,0.9l-0.1,0C206.6,336.3,206.5,336.3,206.4,336.3z"/>
		</g>
		<path class="st14" d="M86.3,359.7c-3,0-6,0-7.6,0c-0.9,0-1.5-0.7-1.5-1.6c0-0.8,0.7-1.5,1.6-1.5c0,0,0,0,0,0
			c3.2,0.1,12,0.1,15.1,0c0.9,0,1.6,0.7,1.6,1.5c0,0.9-0.7,1.6-1.5,1.6C92.3,359.7,89.3,359.7,86.3,359.7z"/>
		<path class="st5" d="M210.6,359.7c-42.3,0-83.2,0-105,0c-0.9,0-1.6-0.7-1.5-1.6c0-0.9,0.7-1.5,1.6-1.5c0,0,0,0,0,0
			c46.7,0,182,0,228.6,0c0,0,0,0,0,0c0.9,0,1.5,0.7,1.6,1.5c0,0.9-0.7,1.6-1.5,1.6C309.3,359.7,259.1,359.7,210.6,359.7z"/>
		<path class="st5" d="M41,195.8h-9.2c-0.9,0-1.6-0.7-1.6-1.6c0-0.9,0.7-1.6,1.6-1.6H41c0.9,0,1.6,0.7,1.6,1.6
			C42.6,195.1,41.9,195.8,41,195.8z"/>
		<path class="st5" d="M450.6,277.1h-29.9c-0.9,0-1.6-0.7-1.6-1.6c0-0.9,0.7-1.6,1.6-1.6h29.9c0.9,0,1.6,0.7,1.6,1.6
			C452.2,276.4,451.5,277.1,450.6,277.1z"/>
		<path class="st5" d="M463.4,277.1h-5.5c-0.9,0-1.6-0.7-1.6-1.6c0-0.9,0.7-1.6,1.6-1.6h5.5c0.9,0,1.6,0.7,1.6,1.6
			C465,276.4,464.3,277.1,463.4,277.1z"/>
		<path class="st5" d="M105.6,295.5H93.2c-0.9,0-1.6-0.7-1.6-1.6s0.7-1.6,1.6-1.6h12.4c0.9,0,1.6,0.7,1.6,1.6
			S106.4,295.5,105.6,295.5z"/>
		<path class="st14" d="M71.1,325.6h-3.5c-0.9,0-1.6-0.7-1.6-1.6c0-0.9,0.7-1.6,1.6-1.6h3.5c0.9,0,1.6,0.7,1.6,1.6
			C72.7,324.9,72,325.6,71.1,325.6z"/>
		<path class="st14" d="M471.5,115.4h-20.8c-0.9,0-1.6-0.7-1.6-1.6s0.7-1.6,1.6-1.6h20.8c0.9,0,1.6,0.7,1.6,1.6
			S472.3,115.4,471.5,115.4z"/>
	</g>
</g>
</svg>
